<svg data-name="Group 299" xmlns="http://www.w3.org/2000/svg" width="185" height="41.826" viewBox="0 0 185 41.826"><defs><clipPath id="a"><path data-name="Rectangle 454" fill="#fff" d="M0 0h185v41.826H0z"/></clipPath></defs><g data-name="Group 277" clip-path="url(#a)" fill="#fff"><path data-name="Path 2024" d="M26.034 15.792a7.357 7.357 0 0 0-6.27-2.016 7.211 7.211 0 0 0-5.6 9.748 7.23 7.23 0 0 0 11.866 2.51 1.721 1.721 0 0 0-2.434-2.434c-.082.08-.165.16-.251.236-.034.03-.273.289-.089.082s-.046.03-.1.065q-.138.094-.281.18c-.158.095-.322.175-.485.259-.214.111.02-.084.111-.043-.05-.023-.346.126-.409.145a5.21 5.21 0 0 1-.523.135c-.07.014-.141.025-.212.039-.378.075.416-.025.031-.008-.18.008-.356.022-.536.021-.089 0-.179 0-.268-.009-.054 0-.107-.007-.161-.011q-.283-.03.137.024c-.323-.127-.711-.141-1.046-.259-.138-.049-.366-.219.007.012-.059-.036-.135-.062-.2-.093a5.487 5.487 0 0 1-.575-.329c-.041-.027-.266-.146-.275-.193.007.04.268.229.083.058-.155-.144-.313-.281-.458-.435-.065-.069-.126-.143-.191-.213-.267-.288.206.317-.009-.008-.113-.17-.227-.337-.327-.516a4.696 4.696 0 0 1-.128-.243l-.048-.1q-.114-.253.043.111c.032-.064-.153-.433-.176-.513q-.075-.259-.124-.525c-.009-.049-.092-.392-.018-.09s0-.128-.008-.2q-.013-.268 0-.536c0-.089.015-.178.02-.268.013-.247-.085.449-.013.084.078-.394.217-.758.319-1.144-.114.432-.058.139 0 .012l.1-.2a5.488 5.488 0 0 1 .29-.472l.064-.091q.164-.222-.064.08c-.006-.036.156-.183.186-.216a5.65 5.65 0 0 1 .492-.482c.226-.2-.016-.1-.04.02.009-.047.234-.166.275-.193q.231-.152.477-.28c.065-.034.131-.065.2-.1.347-.173-.374.132-.009 0a6.288 6.288 0 0 1 .83-.241c.16-.033.577-.011.074-.022.212 0 .429-.033.643-.031.071 0 .143 0 .215.006s.143.008.214.015q.283.03-.138-.024a5.437 5.437 0 0 0 .633.131c.1.027.552.242.617.205-.023.013-.387-.185-.111-.043.114.059.23.113.342.176.2.109.377.235.561.361.2.137-.316-.283-.038-.025.112.1.228.2.338.311a1.721 1.721 0 0 0 2.447-2.42"/><path data-name="Path 2025" d="M11.846 29.98a12.824 12.824 0 1 0 0-18.135c-1.189 1.165.637 2.99 1.826 1.826a10.243 10.243 0 1 1 0 14.483c-1.188-1.164-3.015.66-1.826 1.826"/><path data-name="Path 2026" d="M9.046 32.78a16.783 16.783 0 0 0 23.734 0c1.186-1.167-.64-2.993-1.826-1.826a14.349 14.349 0 0 1-20.082 0c-1.185-1.167-3.012.658-1.826 1.826"/><path data-name="Path 2027" d="M0 20.913a21.159 21.159 0 0 0 13.675 19.622 21 21 0 0 0 7.238 1.291 1.292 1.292 0 0 0 0-2.582A18.331 18.331 0 0 1 2.582 20.913a1.292 1.292 0 0 0-2.582 0"/><path data-name="Path 2028" d="M41.824 20.913A20.91 20.91 0 0 0 20.913 0a1.292 1.292 0 0 0 0 2.582 18.331 18.331 0 0 1 18.331 18.331 1.292 1.292 0 0 0 2.582 0"/><path data-name="Path 2029" d="M32.78 9.046a16.783 16.783 0 0 0-23.733 0c-1.186 1.167.64 2.993 1.826 1.826a14.349 14.349 0 0 1 20.082 0c1.185 1.167 3.012-.658 1.826-1.826"/><path data-name="Path 2030" d="M63.447 23.655a1.921 1.921 0 0 1-.646.2 4.747 4.747 0 0 1-.795.074 1.8 1.8 0 0 1-1.113-.265.842.842 0 0 1-.328-.688.685.685 0 0 1 .381-.636 2.356 2.356 0 0 1 .975-.255l1.526-.127Zm2.088-7.11a6.484 6.484 0 0 0-3.7-.942 12.513 12.513 0 0 0-1.579.106 6.4 6.4 0 0 0-1.452.339 1.479 1.479 0 0 0-1.08 1.441 1.839 1.839 0 0 0 .191.816 1.465 1.465 0 0 0 .466.583 8.218 8.218 0 0 1 1.388-.424 7.258 7.258 0 0 1 1.557-.169 3.642 3.642 0 0 1 1.557.264.908.908 0 0 1 .541.88v.148l-2.776.3a4.712 4.712 0 0 0-2.68.975 3.233 3.233 0 0 0 .466 4.842 6.564 6.564 0 0 0 3.57.859 10.552 10.552 0 0 0 2.225-.212 5.533 5.533 0 0 0 1.653-.615 3.067 3.067 0 0 0 .731-.6 1.316 1.316 0 0 0 .307-.9V19.48a3.3 3.3 0 0 0-1.388-2.935"/><path data-name="Path 2031" d="M54.993 23.209a5.86 5.86 0 0 1-.837.329 3.743 3.743 0 0 1-1.133.158 2.732 2.732 0 0 1-1.844-.636 2.426 2.426 0 0 1-.741-1.95 2.508 2.508 0 0 1 .773-1.992 2.69 2.69 0 0 1 1.833-.678 3.666 3.666 0 0 1 1.1.159 6.891 6.891 0 0 1 .869.328 2.621 2.621 0 0 0 .445-.6 1.546 1.546 0 0 0 .19-.752 1.647 1.647 0 0 0-.836-1.42 4.243 4.243 0 0 0-2.342-.551 6.568 6.568 0 0 0-2.818.6 4.884 4.884 0 0 0-2.077 1.822 5.6 5.6 0 0 0-.784 3.083 5.819 5.819 0 0 0 .71 2.978 4.484 4.484 0 0 0 2.013 1.833 7.115 7.115 0 0 0 3.062.615 4.615 4.615 0 0 0 2.384-.509 1.535 1.535 0 0 0 .837-1.356 1.59 1.59 0 0 0-.2-.826 2.22 2.22 0 0 0-.6-.636"/><path data-name="Path 2032" d="M74.111 15.624a9.018 9.018 0 0 0-2.056.233 6.031 6.031 0 0 0-1.738.678 3.1 3.1 0 0 0-.858.795 1.78 1.78 0 0 0-.329 1.071v6.294a1.584 1.584 0 0 0 .477 1.335 2.531 2.531 0 0 0 1.515.36 6.509 6.509 0 0 0 .943-.063 6.059 6.059 0 0 0 .667-.127v-7.249a3.609 3.609 0 0 1 1.038-.381 5.374 5.374 0 0 1 1.124-.127c.24 0 .459.008.657.021a4.181 4.181 0 0 1 .508.063 2.437 2.437 0 0 0 .255-.561 2.314 2.314 0 0 0 .106-.71q0-1.632-2.31-1.632"/><path data-name="Path 2033" d="M80.344 20.091a2.116 2.116 0 0 1 .575-1.312 1.93 1.93 0 0 1 1.409-.551 1.483 1.483 0 0 1 1.61 1.272Zm6.583 1.1a1.444 1.444 0 0 0 .4-1.1 4.254 4.254 0 0 0-.635-2.32 4.467 4.467 0 0 0-1.759-1.59 5.632 5.632 0 0 0-2.628-.583 6.232 6.232 0 0 0-1.939.307 5.124 5.124 0 0 0-1.706.943 4.509 4.509 0 0 0-1.219 1.652 6.7 6.7 0 0 0 .318 5.553 4.853 4.853 0 0 0 2.1 1.876 6.893 6.893 0 0 0 2.978.625 9.322 9.322 0 0 0 2.1-.212 3.25 3.25 0 0 0 1.431-.668 1.471 1.471 0 0 0 .519-1.155 1.521 1.521 0 0 0-.234-.806 1.788 1.788 0 0 0-.572-.594 6.126 6.126 0 0 1-1.293.509 6.061 6.061 0 0 1-1.7.233 3.671 3.671 0 0 1-1.685-.381 1.755 1.755 0 0 1-.857-1.012l5.255-.789a2.007 2.007 0 0 0 1.123-.487"/><path data-name="Path 2034" d="M90.954 11.152a1.924 1.924 0 0 0-1.42.551 1.932 1.932 0 0 0 0 2.7 2.075 2.075 0 0 0 2.84 0 1.932 1.932 0 0 0 0-2.7 1.923 1.923 0 0 0-1.42-.551"/><path data-name="Path 2035" d="M90.87 15.877a6.493 6.493 0 0 0-.943.064 6.08 6.08 0 0 0-.668.127v10a3 3 0 0 1-.148 1.007 1.96 1.96 0 0 1-.466.731 3.135 3.135 0 0 1-.827.572 2.031 2.031 0 0 0 .562 1.409 1.923 1.923 0 0 0 1.451.562 2.786 2.786 0 0 0 2.618-1.7 5.252 5.252 0 0 0 .413-2.246v-8.83a1.6 1.6 0 0 0-.466-1.346 2.59 2.59 0 0 0-1.526-.35"/><path data-name="Path 2036" d="M101.634 23.051a1.729 1.729 0 0 1-2.755.011 3.393 3.393 0 0 1-.487-1.993 3.308 3.308 0 0 1 .5-1.96 1.693 1.693 0 0 1 2.734.011 3.317 3.317 0 0 1 .5 1.949 3.4 3.4 0 0 1-.488 1.982m1.535-6.771a5.988 5.988 0 0 0-2.914-.678 6.064 6.064 0 0 0-2.9.668 4.8 4.8 0 0 0-1.95 1.9 5.773 5.773 0 0 0-.7 2.9 5.939 5.939 0 0 0 .689 2.946 4.657 4.657 0 0 0 1.939 1.886 6.2 6.2 0 0 0 2.924.657 6.106 6.106 0 0 0 2.935-.667 4.752 4.752 0 0 0 1.929-1.9 5.892 5.892 0 0 0 .689-2.925 5.733 5.733 0 0 0-.7-2.882 4.9 4.9 0 0 0-1.941-1.905"/><path data-name="Path 2037" d="M114.052 23.028a1.884 1.884 0 0 1-1.526.689 2.771 2.771 0 0 1-.774-.1 2.81 2.81 0 0 1-.562-.222v-4.582c.1-.054.191-.108.3-.159a2.583 2.583 0 0 1 1.124-.233 1.847 1.847 0 0 1 1.473.625 2.994 2.994 0 0 1 .54 1.981 3.063 3.063 0 0 1-.572 2m1.78-6.813a5.29 5.29 0 0 0-2.543-.615 5.2 5.2 0 0 0-1.484.2 8.725 8.725 0 0 0-.593.2v-2.1a1.6 1.6 0 0 0-.466-1.346 2.587 2.587 0 0 0-1.526-.349 6.507 6.507 0 0 0-.943.063 5.737 5.737 0 0 0-.667.128v11.324a1.878 1.878 0 0 0 .244.954 2.346 2.346 0 0 0 .689.741 6.92 6.92 0 0 0 1.653.806 7.274 7.274 0 0 0 2.373.339 6.7 6.7 0 0 0 3.031-.646 4.656 4.656 0 0 0 2-1.886 5.945 5.945 0 0 0 .71-3 6.111 6.111 0 0 0-.667-2.988 4.459 4.459 0 0 0-1.812-1.822"/><path data-name="Path 2038" d="M127.9 21.038a6.26 6.26 0 0 0-2.893-1.282l-.657-.148a2.442 2.442 0 0 1-.8-.276.447.447 0 0 1-.212-.381.527.527 0 0 1 .381-.5 2.905 2.905 0 0 1 1.081-.159 5.7 5.7 0 0 1 1.017.106 10.528 10.528 0 0 1 1.07.254 3.111 3.111 0 0 1 .731.3 1.846 1.846 0 0 0 .456-.593 1.827 1.827 0 0 0 .18-.827 1.4 1.4 0 0 0-.509-1.113 3.2 3.2 0 0 0-1.367-.635 8.311 8.311 0 0 0-1.9-.2 5.824 5.824 0 0 0-3.37.89 2.843 2.843 0 0 0-1.292 2.479 2.75 2.75 0 0 0 .911 2.2 5.924 5.924 0 0 0 2.734 1.145l.635.127a2.367 2.367 0 0 1 .848.275.533.533 0 0 1 .254.466q0 .7-1.356.7a5.782 5.782 0 0 1-1.833-.265 8.383 8.383 0 0 1-1.409-.6 1.839 1.839 0 0 0-.508.572 1.68 1.68 0 0 0-.212.869 1.706 1.706 0 0 0 1.154 1.621 7.257 7.257 0 0 0 2.957.519 5.868 5.868 0 0 0 3.55-.912 2.973 2.973 0 0 0 1.218-2.521 2.779 2.779 0 0 0-.858-2.109"/><path data-name="Path 2039" d="M134.099 20.624v-1.716h1.93a1.188 1.188 0 0 0 .879-.328 1.471 1.471 0 0 0 .328-1.071 2.553 2.553 0 0 0-.116-.784 2.843 2.843 0 0 0-.244-.572h-2.777v-1.144a1.607 1.607 0 0 0-.466-1.336 2.485 2.485 0 0 0-1.5-.36 5.429 5.429 0 0 0-.921.075q-.435.074-.668.138v9.409a3.411 3.411 0 0 0 1.007 2.755 4.337 4.337 0 0 0 2.872.847 3.317 3.317 0 0 0 2.13-.519 1.749 1.749 0 0 0 .466-2 2.05 2.05 0 0 0-.328-.509 3.666 3.666 0 0 1-.594.138 4.188 4.188 0 0 1-.657.053 1.7 1.7 0 0 1-.985-.244.875.875 0 0 1-.35-.773v-2.059Z"/><path data-name="Path 2040" d="M157.346 23.623a2.4 2.4 0 0 1-.7.1 2.088 2.088 0 0 1-1.621-.636 2.843 2.843 0 0 1-.583-1.97 3.577 3.577 0 0 1 .275-1.5 1.921 1.921 0 0 1 .795-.89 2.46 2.46 0 0 1 1.24-.3 2.424 2.424 0 0 1 .985.191c.035.015.062.032.095.047v4.784a3.134 3.134 0 0 1-.487.18m2.077-11.411a6.494 6.494 0 0 0-.943.063 6.022 6.022 0 0 0-.667.127v3.43c-.091-.029-.175-.06-.276-.087a5.01 5.01 0 0 0-1.292-.149 6.233 6.233 0 0 0-2.766.6 4.552 4.552 0 0 0-1.96 1.822 6.871 6.871 0 0 0-.021 6.081 4.418 4.418 0 0 0 2.013 1.833 8.338 8.338 0 0 0 5.383.307 6.451 6.451 0 0 0 1.59-.71 1.994 1.994 0 0 0 .71-.678 1.778 1.778 0 0 0 .223-.912V13.907a1.6 1.6 0 0 0-.466-1.345 2.583 2.583 0 0 0-1.526-.35"/><path data-name="Path 2041" d="M184.449 16.026a2.543 2.543 0 0 0-1.293-.318 3.016 3.016 0 0 0-.8.106 3.706 3.706 0 0 0-.741.3q-.191 1.144-.477 2.363t-.615 2.384q-.328 1.165-.667 2.14h-.085q-.4-1.441-.827-2.892t-.848-2.935a1.885 1.885 0 0 0-.72-1.155 2.266 2.266 0 0 0-1.229-.308 2.742 2.742 0 0 0-1.887.742q.466 1.886.859 3.21t.752 2.267q.361.943.678 1.663a4.883 4.883 0 0 0 .9 1.473 2 2 0 0 0 .773.5q-.339.487-.762.985t-.88.943q-.456.444-.9.826a2.184 2.184 0 0 0 .678 1.378 2.014 2.014 0 0 0 1.421.529 2.971 2.971 0 0 0 2.055-1 14.5 14.5 0 0 0 2.2-3.051q.424-.742.847-1.664t.806-1.928q.382-1.006.678-2a19.152 19.152 0 0 0 .466-1.886 8.53 8.53 0 0 0 .167-1.572 1.167 1.167 0 0 0-.55-1.1"/><path data-name="Path 2042" d="M169.509 23.655a1.93 1.93 0 0 1-.646.2 4.752 4.752 0 0 1-.795.074 1.794 1.794 0 0 1-1.113-.265.841.841 0 0 1-.328-.689.684.684 0 0 1 .381-.636 2.347 2.347 0 0 1 .975-.254l1.526-.128Zm2.087-7.109a6.475 6.475 0 0 0-3.7-.943 12.658 12.658 0 0 0-1.579.106 6.367 6.367 0 0 0-1.451.339 1.48 1.48 0 0 0-1.081 1.441 1.851 1.851 0 0 0 .191.816 1.471 1.471 0 0 0 .466.583 8.272 8.272 0 0 1 1.388-.423 7.26 7.26 0 0 1 1.558-.17 3.639 3.639 0 0 1 1.557.265.909.909 0 0 1 .54.879v.149l-2.776.3a4.712 4.712 0 0 0-2.681.975 3.234 3.234 0 0 0 .466 4.842 6.565 6.565 0 0 0 3.571.858 10.541 10.541 0 0 0 2.225-.212 5.509 5.509 0 0 0 1.652-.614 3.055 3.055 0 0 0 .731-.6 1.318 1.318 0 0 0 .308-.9V19.48a3.3 3.3 0 0 0-1.389-2.935"/><path data-name="Path 2043" d="M145.31 23.051a1.729 1.729 0 0 1-2.755.011 3.392 3.392 0 0 1-.488-1.993 3.308 3.308 0 0 1 .5-1.96 1.693 1.693 0 0 1 2.733.011 3.315 3.315 0 0 1 .5 1.949 3.4 3.4 0 0 1-.487 1.982m1.536-6.771a5.981 5.981 0 0 0-2.914-.678 6.078 6.078 0 0 0-2.9.668 4.8 4.8 0 0 0-1.949 1.9 5.776 5.776 0 0 0-.7 2.9 5.934 5.934 0 0 0 .689 2.946 4.661 4.661 0 0 0 1.939 1.886 6.2 6.2 0 0 0 2.924.657 6.1 6.1 0 0 0 2.935-.667 4.747 4.747 0 0 0 1.928-1.9 5.89 5.89 0 0 0 .688-2.925 5.731 5.731 0 0 0-.7-2.882 4.89 4.89 0 0 0-1.939-1.907"/></g></svg>