<?xml version="1.0" standalone="no"?>
<!DOCTYPE svg PUBLIC "-//W3C//DTD SVG 20010904//EN"
 "http://www.w3.org/TR/2001/REC-SVG-20010904/DTD/svg10.dtd">
<svg version="1.0" xmlns="http://www.w3.org/2000/svg"
 width="700.000000pt" height="700.000000pt" viewBox="0 0 700.000000 700.000000"
 preserveAspectRatio="xMidYMid meet">
<metadata>
Created by potrace 1.14, written by Peter Selinger 2001-2017
</metadata>
<g transform="translate(0.000000,700.000000) scale(0.100000,-0.100000)"
fill="#000000" stroke="none">
<path d="M3424 6987 c-140 -56 -176 -251 -68 -360 47 -47 77 -54 249 -62 140
-6 159 -7 310 -26 584 -73 1192 -354 1633 -756 107 -97 200 -191 261 -263 25
-30 52 -62 60 -70 24 -25 153 -201 195 -265 100 -154 208 -356 268 -500 53
-128 129 -357 142 -429 2 -11 11 -48 19 -81 36 -138 65 -369 73 -570 6 -161
16 -204 61 -249 113 -112 325 -67 364 77 10 37 5 378 -5 396 -2 3 -7 38 -10
76 -6 66 -9 87 -21 153 -3 15 -8 44 -11 65 -20 131 -90 392 -152 564 -306 850
-938 1556 -1747 1952 -367 180 -784 303 -1145 337 -30 3 -66 7 -80 10 -69 12
-367 13 -396 1z"/>
<path d="M3339 6306 c-2 -2 -46 -6 -96 -10 -51 -4 -98 -8 -105 -11 -7 -2 -33
-6 -58 -9 -39 -5 -110 -17 -176 -30 -11 -2 -73 -18 -138 -36 -404 -108 -795
-316 -1099 -584 -138 -121 -173 -157 -196 -201 -68 -129 49 -305 203 -305 57
0 106 24 166 80 174 163 391 316 585 412 61 30 124 60 140 66 117 45 150 57
233 82 150 47 324 81 492 96 145 13 435 7 527 -10 10 -2 41 -7 68 -10 76 -11
249 -53 355 -87 334 -108 659 -301 909 -539 68 -64 118 -90 176 -90 148 0 265
164 211 295 -23 53 -177 201 -339 323 -410 309 -880 495 -1407 557 -58 7 -445
16 -451 11z"/>
<path d="M3377 5644 c-1 -1 -33 -4 -72 -8 -478 -42 -937 -251 -1288 -585 -95
-91 -116 -155 -82 -252 20 -57 58 -96 120 -125 95 -45 164 -26 270 74 211 198
486 348 766 415 57 14 127 28 154 32 28 3 66 9 85 12 48 8 294 7 355 -1 102
-14 122 -18 200 -36 188 -44 342 -108 534 -221 117 -70 302 -233 400 -353 55
-68 151 -201 151 -210 0 -2 18 -35 39 -73 76 -130 155 -359 181 -519 59 -364
11 -712 -143 -1034 -308 -644 -988 -1031 -1697 -967 -112 11 -147 16 -240 39
-307 74 -572 219 -803 438 -56 52 -108 79 -156 80 -159 1 -276 -167 -212 -305
30 -67 215 -228 401 -349 76 -50 246 -140 340 -179 123 -52 318 -109 451 -131
19 -3 45 -8 59 -11 91 -18 377 -25 515 -11 346 34 685 153 973 343 99 65 87
57 207 156 394 326 667 821 740 1337 20 144 25 354 11 509 -41 479 -292 998
-642 1331 -102 97 -291 250 -308 250 -2 0 -31 18 -64 39 -166 111 -480 234
-707 277 -11 2 -31 6 -45 9 -14 2 -43 7 -65 9 -22 3 -65 8 -95 12 -49 6 -327
13 -333 8z"/>
<path d="M3358 4705 c-2 -2 -16 -5 -33 -8 -16 -3 -48 -8 -70 -12 -64 -11 -193
-54 -275 -92 -215 -100 -422 -293 -535 -498 -15 -27 -31 -54 -35 -60 -23 -31
-79 -205 -106 -330 -14 -67 -13 -320 1 -402 70 -390 317 -723 660 -888 195
-94 336 -125 555 -121 85 2 169 6 185 10 149 34 313 89 355 120 8 6 31 20 50
30 118 64 254 182 294 256 117 216 -81 474 -319 416 -49 -12 -95 -40 -159 -97
-195 -176 -478 -210 -723 -88 -65 32 -99 58 -157 119 -164 172 -220 402 -152
623 35 112 83 192 160 267 90 89 215 156 326 177 91 17 263 3 325 -26 11 -5
36 -15 55 -22 46 -16 124 -68 180 -120 124 -113 287 -121 402 -20 67 60 93
119 93 216 0 70 -4 87 -30 134 -46 84 -198 207 -350 284 -116 59 -232 97 -375
123 -35 6 -317 14 -322 9z"/>
<path d="M137 3696 c-40 -15 -72 -38 -97 -71 -36 -47 -40 -74 -35 -239 3 -88
7 -170 9 -181 2 -11 7 -51 11 -89 8 -77 7 -74 36 -236 89 -497 313 -1020 613
-1430 41 -55 142 -185 161 -206 6 -6 42 -46 80 -89 74 -83 220 -227 295 -291
25 -22 47 -41 50 -44 3 -3 46 -37 95 -76 377 -297 810 -512 1264 -630 151 -39
362 -80 466 -89 39 -4 84 -9 100 -11 17 -2 102 -7 191 -10 147 -6 164 -5 205
13 83 38 121 92 125 181 3 70 -19 132 -63 176 -47 47 -79 55 -249 61 -77 2
-155 7 -174 9 -19 3 -62 8 -95 11 -191 20 -521 100 -685 165 -325 129 -548
252 -785 430 -570 429 -974 1047 -1139 1740 -14 58 -28 119 -31 135 -13 75
-25 155 -30 210 -3 33 -8 71 -10 85 -3 14 -7 94 -11 178 -3 98 -11 165 -20
188 -40 97 -170 148 -277 110z"/>
<path d="M1582 1859 c-79 -40 -132 -125 -132 -210 0 -70 46 -128 224 -282 379
-329 853 -550 1361 -636 167 -29 263 -36 460 -36 266 0 438 20 681 79 102 25
322 95 379 121 17 8 68 31 115 52 81 37 203 99 245 126 296 184 570 409 615
504 65 138 -51 303 -213 303 -53 0 -91 -20 -162 -86 -76 -71 -222 -188 -300
-241 -248 -169 -549 -301 -820 -359 -207 -44 -336 -58 -540 -58 -107 0 -267
10 -313 19 -9 1 -38 6 -64 9 -69 9 -240 50 -333 79 -336 106 -668 297 -905
520 -101 96 -124 109 -192 114 -51 3 -71 0 -106 -18z"/>
</g>
</svg>
