<?xml version="1.0" encoding="UTF-8"?>
<!DOCTYPE svg PUBLIC "-//W3C//DTD SVG 1.1//EN" "http://www.w3.org/Graphics/SVG/1.1/DTD/svg11.dtd">
<svg xmlns="http://www.w3.org/2000/svg" xmlns:xlink="http://www.w3.org/1999/xlink">
	<defs>
    <clipPath id="a">
      <path data-name="Rectangle 49" d="M0 0h35.159v83.99H0z"/>
    </clipPath>
  
    <clipPath id="a">
      <path data-name="Rectangle 225" transform="translate(-.426 .33)" d="M0 0h100v100H0z"/>
    </clipPath>
  </defs>
<symbol id="case" viewBox="0 0 20 19">
  <path d="M1.5 19a1.439 1.439 0 0 1-1.05-.45A1.439 1.439 0 0 1 0 17.5V5.275a1.439 1.439 0 0 1 .45-1.05 1.439 1.439 0 0 1 1.05-.45h4.75V1.5A1.439 1.439 0 0 1 6.7.45 1.439 1.439 0 0 1 7.75 0h4.5a1.439 1.439 0 0 1 1.05.45 1.439 1.439 0 0 1 .45 1.05v2.275h4.75a1.538 1.538 0 0 1 1.5 1.5V17.5a1.538 1.538 0 0 1-1.5 1.5ZM7.75 3.775h4.5V1.5h-4.5Zm10.75 8.95h-6.225v1.5h-4.5v-1.5H1.5V17.5h17Zm-9.225 0h1.5v-1.5h-1.5Zm-7.775-1.5h6.275v-1.5h4.5v1.5H18.5v-5.95h-17Zm8.5.75Z" fill="gray"/>
</symbol>
<symbol id="checkmark" viewBox="0 0 24 24">
  <g data-name="Group 275" transform="translate(-952 -1765)">
    <circle data-name="Ellipse 15" cx="12" cy="12" r="12" transform="translate(952 1765)"/>
    <path d="m962.325 1782.621 8.568-8.568-1.393-1.363-7.176 7.176-3.633-3.633-1.362 1.362Zm1.784-5.511Z" fill="#fff"/>
  </g>
</symbol>
<symbol id="chevron-down" viewBox="0 0 9.899 9.9">
  <path data-name="Path 2417" d="M.707 4.243 4.95 8.485l4.242-4.242" fill="none" stroke="#000" stroke-width="2"/>
</symbol>
<symbol id="chevron-left" viewBox="0 0 14.2 24.1">
  <path data-name="chevron_right_FILL0_wght400_GRAD0_opsz48 (1)" d="m12.05 24.1 2.15-2.15-9.9-9.9 9.9-9.9L12.05 0 0 12.05Z"/>
</symbol>
<symbol id="chevron-right" viewBox="0 0 14.2 24.1">
  <path data-name="chevron_right_FILL0_wght400_GRAD0_opsz48 (1)" d="M2.15 24.1 0 21.95l9.9-9.9L0 2.15 2.15 0 14.2 12.05Z"/>
</symbol>
<symbol id="money" viewBox="0 0 18.795 13.669">
  <path data-name="payments_FILL0_wght400_GRAD0_opsz48 (1)" d="M10.679 8.116a2.552 2.552 0 1 1 1.815-.748 2.472 2.472 0 0 1-1.815.748Zm-6.835 2.99a1.285 1.285 0 0 1-1.281-1.281V1.282A1.285 1.285 0 0 1 3.844 0h13.669a1.285 1.285 0 0 1 1.281 1.281v8.543a1.285 1.285 0 0 1-1.281 1.281ZM5.98 9.825h9.4a2.115 2.115 0 0 1 2.136-2.136V3.417a2.115 2.115 0 0 1-2.136-2.136h-9.4a2.115 2.115 0 0 1-2.136 2.136v4.272A2.115 2.115 0 0 1 5.98 9.825Zm10.252 3.844H1.281A1.285 1.285 0 0 1 0 12.388V2.563h1.281v9.825h14.951ZM3.844 9.825Z" fill="gray"/>
</symbol>
<symbol id="mouse" viewBox="0 0 35.159 83.99">
  
  <g data-name="Group 53" clip-path="url(#a)">
    <path data-name="Path 70" d="M0 33.205v17.58a17.58 17.58 0 1 0 35.159 0v-17.58a17.58 17.58 0 1 0-35.159 0Zm17.579-13.673a13.713 13.713 0 0 1 13.673 13.673v17.579a13.673 13.673 0 1 1-27.345 0V33.205a13.713 13.713 0 0 1 13.672-13.674Z"/>
    <path data-name="Path 71" d="M17.579 36.135a1.959 1.959 0 0 0 1.953-1.953v-5.86a1.953 1.953 0 0 0-3.906 0v5.86a1.959 1.959 0 0 0 1.953 1.953"/>
    <path data-name="Path 72" d="M16.212 83.4a1.889 1.889 0 0 0 2.735 0l4.883-4.883a1.934 1.934 0 0 0-2.735-2.735L17.58 79.3l-3.516-3.516a1.934 1.934 0 0 0-2.735 2.735Z"/>
    <path data-name="Path 73" d="M16.212.586 11.329 5.47a1.888 1.888 0 0 0 0 2.735 1.888 1.888 0 0 0 2.735 0l3.516-3.516L21.095 8.2a1.888 1.888 0 0 0 2.734 0 1.888 1.888 0 0 0 0-2.735L18.943.587a1.888 1.888 0 0 0-2.735 0Z"/>
  </g>
</symbol>
<symbol id="people" viewBox="0 0 19 12.292">
  <path data-name="group_add_FILL0_wght400_GRAD0_opsz48 (1)" d="M9.381 5.84a4.587 4.587 0 0 0 .762-1.306 5.064 5.064 0 0 0 0-3.127A4.587 4.587 0 0 0 9.381.101a3.205 3.205 0 0 1 2.642.455 3.131 3.131 0 0 1 0 4.829 3.206 3.206 0 0 1-2.642.455Zm4.275 6.452v-1.86a3.632 3.632 0 0 0-.515-1.88 3.9 3.9 0 0 0-1.781-1.465 12.006 12.006 0 0 1 4.681 1.267 2.439 2.439 0 0 1 1.257 2.078v1.86Zm2.177-5.72V4.593h-1.979V3.406h1.979V1.427h1.188v1.979H19v1.188h-1.979V6.57Zm-9.6-.633a2.97 2.97 0 1 1 0-5.937 2.97 2.97 0 1 1 0 5.938ZM0 12.292v-1.86a2.282 2.282 0 0 1 1.346-2.1 15.665 15.665 0 0 1 2.543-.91 9.72 9.72 0 0 1 2.345-.277 9.6 9.6 0 0 1 2.335.277 15.814 15.814 0 0 1 2.533.91 2.311 2.311 0 0 1 .99.841 2.216 2.216 0 0 1 .376 1.257v1.86Zm6.234-7.541a1.782 1.782 0 1 0 0-3.562 1.782 1.782 0 1 0 0 3.563Zm-5.047 6.353h10.094v-.673a1.177 1.177 0 0 0-.158-.594 1.074 1.074 0 0 0-.495-.435 12.218 12.218 0 0 0-2.316-.851 9.3 9.3 0 0 0-2.078-.218 9.171 9.171 0 0 0-2.068.218 13.258 13.258 0 0 0-2.345.851 1.036 1.036 0 0 0-.465.426 1.176 1.176 0 0 0-.168.6ZM6.234 2.97Zm0 8.134Z" fill="gray"/>
</symbol>
<symbol id="pin" viewBox="0 0 18.591 23.239">
  <path d="M9.3 11.329a2.033 2.033 0 0 0 1.438-3.471 2.034 2.034 0 0 0-2.876 2.876 1.959 1.959 0 0 0 1.438.595Zm0 9.615a34.022 34.022 0 0 0 5.7-6.376 9.673 9.673 0 0 0 1.845-5.04 7.562 7.562 0 0 0-2.193-5.606A7.315 7.315 0 0 0 9.3 1.743a7.315 7.315 0 0 0-5.359 2.179 7.562 7.562 0 0 0-2.193 5.606 9.532 9.532 0 0 0 1.888 5.04A36.945 36.945 0 0 0 9.3 20.944Zm0 2.295a38.627 38.627 0 0 1-6.986-7.393A11.5 11.5 0 0 1 0 9.528a8.986 8.986 0 0 1 2.8-6.943 9.445 9.445 0 0 1 12.985 0 8.986 8.986 0 0 1 2.8 6.943 11.5 11.5 0 0 1-2.309 6.318A38.627 38.627 0 0 1 9.3 23.239Zm0-13.711Z" fill="gray"/>
</symbol>
<symbol id="play" viewBox="0 0 100 100">
  
  <g data-name="Group 227">
    <g data-name="Group 164" clip-path="url(#a)" transform="translate(.426 -.33)">
      <path data-name="Path 1568" d="M49.928-.354a49.929 49.929 0 1 0 49.93 49.929A49.929 49.929 0 0 0 49.928-.354m23.583 53.151L37.65 73.501a3.72 3.72 0 0 1-5.579-3.221V28.871a3.72 3.72 0 0 1 5.579-3.225l35.861 20.7a3.719 3.719 0 0 1 0 6.443"/>
    </g>
  </g>
</symbol>
<symbol id="plus" viewBox="0 0 20 20">
  <path d="M9 1h1v17H9z"/>
  <path d="M1 9h17v1H1z"/>
</symbol>
<symbol id="time" viewBox="0 0 19 19">
  <path d="m12.991 14.084 1.069-1.069-3.776-3.8V4.441H8.859v5.344ZM9.5 19a9.192 9.192 0 0 1-3.681-.748 9.571 9.571 0 0 1-5.071-5.071 9.431 9.431 0 0 1 0-7.362A9.571 9.571 0 0 1 5.819.748a9.431 9.431 0 0 1 7.363 0 9.571 9.571 0 0 1 5.071 5.071 9.431 9.431 0 0 1 0 7.362 9.571 9.571 0 0 1-5.071 5.071A9.192 9.192 0 0 1 9.5 19Zm0-9.5Zm0 8.075A8.109 8.109 0 1 0 3.8 15.2a7.774 7.774 0 0 0 5.7 2.375Z" fill="gray"/>
</symbol>
<symbol id="upload" viewBox="0 0 25.12 31.403">
  <path d="M11.462 26.614h2.355v-7.89l3.219 3.219 1.649-1.649-6.124-5.967-6.045 6.045 1.649 1.649 3.3-3.3Zm-9.107 4.789A2.415 2.415 0 0 1 0 29.048V2.355A2.415 2.415 0 0 1 2.355 0h14.171l8.6 8.6v20.451a2.415 2.415 0 0 1-2.355 2.355ZM15.348 9.656v-7.3H2.355v26.693h20.412V9.657Zm-12.993-7.3Z"/>
</symbol>
</svg>